<svg width="140" height="140" viewBox="0 0 140 140" fill="none" xmlns="http://www.w3.org/2000/svg">
<path d="M69.9417 11.6667C37.7417 11.6667 11.6084 37.8001 11.6084 70.0001C11.6084 102.2 37.7417 128.333 69.9417 128.333C102.142 128.333 128.275 102.2 128.275 70.0001C128.275 37.8001 102.142 11.6667 69.9417 11.6667ZM91.0001 48.6501C97.2417 48.6501 102.258 53.6668 102.258 59.9084C102.258 66.1501 97.2417 71.1668 91.0001 71.1668C84.7584 71.1668 79.7417 66.1501 79.7417 59.9084C79.6834 53.6668 84.7584 48.6501 91.0001 48.6501ZM56.0001 39.4334C63.5834 39.4334 69.7667 45.6168 69.7667 53.2001C69.7667 60.7834 63.5834 66.9668 56.0001 66.9668C48.4167 66.9668 42.2334 60.7834 42.2334 53.2001C42.2334 45.5584 48.3584 39.4334 56.0001 39.4334ZM56.0001 92.6918V114.567C42.0001 110.192 30.9167 99.4001 26.0167 85.6334C32.1417 79.1001 47.4251 75.7751 56.0001 75.7751C59.0917 75.7751 63.0001 76.2418 67.0834 77.0584C57.5167 82.1334 56.0001 88.8418 56.0001 92.6918ZM69.9417 116.667C68.3667 116.667 66.8501 116.608 65.3334 116.433V92.6918C65.3334 84.4084 82.4834 80.2668 91.0001 80.2668C97.2417 80.2668 108.033 82.5418 113.4 86.9751C106.575 104.3 89.7167 116.667 69.9417 116.667Z" fill="#003C89"/>
</svg>
