<svg width="140" height="140" viewBox="0 0 140 140" fill="none" xmlns="http://www.w3.org/2000/svg">
<path d="M103.892 26.0751C103.425 26.0751 102.958 25.9584 102.55 25.7251C91.3499 19.9501 81.6665 17.5001 70.0582 17.5001C58.5082 17.5001 47.5415 20.2417 37.5665 25.7251C36.1665 26.4834 34.4165 25.9584 33.5999 24.5584C32.8415 23.1584 33.3665 21.3501 34.7665 20.5917C45.6165 14.7001 57.5165 11.6667 70.0582 11.6667C82.4832 11.6667 93.3332 14.4084 105.233 20.5334C106.692 21.2917 107.217 23.0417 106.458 24.4417C105.933 25.4917 104.942 26.0751 103.892 26.0751ZM20.4165 56.7001C19.8332 56.7001 19.2499 56.5251 18.7249 56.1751C17.3832 55.2418 17.0915 53.4334 18.0249 52.0918C23.7999 43.9251 31.1499 37.5084 39.8999 33.0168C58.2165 23.5667 81.6665 23.5084 100.042 32.9584C108.792 37.4501 116.142 43.8084 121.917 51.9168C122.85 53.2001 122.558 55.0668 121.217 56.0001C119.875 56.9334 118.067 56.6418 117.133 55.3001C111.883 47.9501 105.233 42.1751 97.3582 38.1501C80.6165 29.5751 59.2082 29.5751 42.5249 38.2084C34.5915 42.2918 27.9415 48.1251 22.6915 55.4751C22.2249 56.2918 21.3499 56.7001 20.4165 56.7001ZM56.8749 127.108C56.1165 127.108 55.3582 126.817 54.8332 126.233C49.7582 121.158 47.0165 117.892 43.1082 110.833C39.0832 103.658 36.9832 94.9084 36.9832 85.5168C36.9832 68.1918 51.7999 54.0751 69.9999 54.0751C88.1999 54.0751 103.017 68.1918 103.017 85.5168C103.017 87.1501 101.733 88.4334 100.1 88.4334C98.4665 88.4334 97.1832 87.1501 97.1832 85.5168C97.1832 71.4001 84.9915 59.9084 69.9999 59.9084C55.0082 59.9084 42.8165 71.4001 42.8165 85.5168C42.8165 93.9168 44.6832 101.675 48.2415 107.975C51.9749 114.683 54.5415 117.542 59.0332 122.092C60.1415 123.258 60.1415 125.067 59.0332 126.233C58.3915 126.817 57.6332 127.108 56.8749 127.108ZM98.6999 116.317C91.7582 116.317 85.6332 114.567 80.6165 111.125C71.9249 105.233 66.7332 95.6668 66.7332 85.5168C66.7332 83.8834 68.0165 82.6001 69.6499 82.6001C71.2832 82.6001 72.5665 83.8834 72.5665 85.5168C72.5665 93.7418 76.7665 101.5 83.8832 106.283C88.0249 109.083 92.8665 110.425 98.6999 110.425C100.1 110.425 102.433 110.25 104.767 109.842C106.342 109.55 107.858 110.6 108.15 112.233C108.442 113.808 107.392 115.325 105.758 115.617C102.433 116.258 99.5165 116.317 98.6999 116.317ZM86.9749 128.333C86.7415 128.333 86.4499 128.275 86.2165 128.217C76.9415 125.65 70.8749 122.208 64.5165 115.967C56.3499 107.858 51.8582 97.0668 51.8582 85.5168C51.8582 76.0668 59.9082 68.3668 69.8249 68.3668C79.7415 68.3668 87.7915 76.0668 87.7915 85.5168C87.7915 91.7584 93.2165 96.8334 99.9249 96.8334C106.633 96.8334 112.058 91.7584 112.058 85.5168C112.058 63.5251 93.0999 45.6751 69.7665 45.6751C53.1999 45.6751 38.0332 54.8918 31.2082 69.1834C28.9332 73.9084 27.7665 79.4501 27.7665 85.5168C27.7665 90.0668 28.1749 97.2418 31.6749 106.575C32.2582 108.092 31.4999 109.783 29.9832 110.308C28.4665 110.892 26.7749 110.075 26.2499 108.617C23.3915 100.975 21.9915 93.3918 21.9915 85.5168C21.9915 78.5168 23.3332 72.1584 25.9582 66.6168C33.7165 50.3418 50.9249 39.7834 69.7665 39.7834C96.3082 39.7834 117.892 60.2584 117.892 85.4584C117.892 94.9084 109.842 102.608 99.9249 102.608C90.0082 102.608 81.9582 94.9084 81.9582 85.4584C81.9582 79.2168 76.5332 74.1418 69.8249 74.1418C63.1165 74.1418 57.6915 79.2168 57.6915 85.4584C57.6915 95.4334 61.5415 104.767 68.5999 111.767C74.1415 117.25 79.4499 120.283 87.6749 122.558C89.2499 122.967 90.1249 124.6 89.7165 126.117C89.4249 127.458 88.1999 128.333 86.9749 128.333Z" fill="#003C89"/>
</svg>
